<svg xmlns="http://www.w3.org/2000/svg" width="46" height="46" fill="none" style=""><rect id="backgroundrect" width="100%" height="100%" x="0" y="0" fill="none" stroke="none"/><defs><clipPath id="a"><path fill="#fff" d="M0 0h46v46H0z" id="svg_1"/></clipPath></defs><g class="currentLayer" style=""><title>Layer 1</title><g clip-path="url(#a)" id="svg_2" class="selected" fill="#000000" fill-opacity="1"><path fill="#000000" d="M26.78401496887207,17.505481719970703 c0.8550000000000001,-3.6340000000000003 9.319,-12.727 13.358,-9.693 c4.7,3.6430000000000002 -0.782,10.957 -2.714,13.785 c0,0 -0.38700000000000007,-3.914 -3.469,-7.464 a155.657,155.657 0 0 0 -6.063,4.13 a0.7180000000000001,0.7180000000000001 0 0 1 -1.07,-0.3330000000000001 a0.7520000000000001,0.7520000000000001 0 0 1 -0.04300000000000001,-0.42500000000000004 zm3.45,5.487 a0.6840000000000002,0.6840000000000002 0 0 0 -0.38700000000000007,0.525 a0.7320000000000001,0.7320000000000001 0 0 0 0.09200000000000003,0.51 a0.7100000000000001,0.7100000000000001 0 0 0 0.405,0.31400000000000006 c1.564,0.468 4.204,1.292 6.946,2.266 c-0.81,4.664 -3.5700000000000003,7.408 -3.5700000000000003,7.408 c3.376,-0.22500000000000003 12.402,-0.403 12.282,-6.424 c-0.17500000000000002,-5.104 -12.438,-6.181 -15.769,-4.599 zm-2.07,6.163 a0.6970000000000002,0.6970000000000002 0 0 0 -0.8,0.12200000000000001 a0.7250000000000001,0.7250000000000001 0 0 0 -0.16700000000000004,0.805 a159.065,159.065 0 0 1 2.585,6.948 c-4.094,2.257 -7.92,1.7600000000000002 -7.92,1.7600000000000002 c2.2720000000000002,2.548 8.03,9.628 12.576,5.788 c3.818,-3.315 -2.981,-13.757 -6.275,-15.424 zm-6.027,2.19 a0.7060000000000001,0.7060000000000001 0 0 0 -0.41400000000000003,-0.505 a0.6880000000000002,0.6880000000000002 0 0 0 -0.51,-0.026000000000000006 a0.7030000000000001,0.7030000000000001 0 0 0 -0.39100000000000007,0.3350000000000001 c-0.8,1.4420000000000002 -2.18,3.8770000000000002 -3.736,6.378 c-4.2780000000000005,-1.855 -6.283,-5.217 -6.283,-5.217 c-0.543,3.4 -2.401,12.4 3.3850000000000002,13.636 c4.922,0.973 8.722,-10.948 7.95,-14.6 zm-5.428,-3.4450000000000003 a0.7460000000000001,0.7460000000000001 0 0 0 -0.17,-1.063 a0.6980000000000002,0.6980000000000002 0 0 0 -0.501,-0.10800000000000001 c-1.61,0.262 -4.343,0.6840000000000002 -7.232,1.002 c-1.242,-4.57 0.09200000000000003,-8.25 0.09200000000000003,-8.25 C5.94501496887207,21.157481719970704 -2.1229850311279295,25.287481719970703 0.5260149688720703,30.653481719970703 c2.319,4.532 13.846,0.131 16.183,-2.753 zm-0.7450000000000001,-6.471 a0.6800000000000002,0.6800000000000002 0 0 0 0.5800000000000001,-0.29000000000000004 a0.7400000000000001,0.7400000000000001 0 0 0 -0.09200000000000003,-0.975 a139.368,139.368 0 0 1 -5.272,-5.132 c2.742,-3.83 6.4030000000000005,-5.057 6.4030000000000005,-5.057 c-3.128,-1.31 -11.325,-5.178 -13.8,0.29000000000000004 c-2.042,4.664 8.51,11.107 12.181,11.164 zm5.106,-4.336 a0.7110000000000001,0.7110000000000001 0 0 0 0.47200000000000003,-0.20400000000000001 a0.7350000000000001,0.7350000000000001 0 0 0 0.21800000000000003,-0.47000000000000003 c0.101,-1.6580000000000001 0.32200000000000006,-4.458 0.6620000000000001,-7.399 c4.656000000000001,-0.20600000000000002 7.876,1.948 7.876,1.948 C29.35901496887207,7.662481719970703 27.22401496887207,-1.271518280029297 21.48401496887207,0.15248171997070314 c-4.8580000000000005,1.283 -3.238,13.7 -1.003,16.669 a0.7200000000000001,0.7200000000000001 0 0 0 0.5890000000000001,0.272 z" id="svg_3" fill-opacity="1"/></g></g></svg>